HIERARCHY
ROOT Hips
{
  OFFSET 53.2049 85.7957 7.35022
  CHANNELS 6 Xposition Yposition Zposition Zrotation Xrotation Yrotation
  JOINT spine
  {
    OFFSET 0 6.3926 0.367606
    CHANNELS 3 Zrotation Xrotation Yrotation
    JOINT spine1
    {
      OFFSET 0 9.17611 0
      CHANNELS 3 Zrotation Xrotation Yrotation
      JOINT spine2
      {
        OFFSET 0 8.79238 0
        CHANNELS 3 Zrotation Xrotation Yrotation
        JOINT Neck
        {
          OFFSET 0 22.5737 1.07624
          CHANNELS 3 Zrotation Xrotation Yrotation
          JOINT Head
          {
            OFFSET 0 6.82011 0
            CHANNELS 3 Zrotation Xrotation Yrotation
            End Site
            {
              OFFSET 0 16.5085 -5.44427
            }
          }
        }
        JOINT RightShoulder
        {
          OFFSET -3.70221 9.49509 -0.515508
          CHANNELS 3 Zrotation Xrotation Yrotation
          JOINT RightArm
          {
            OFFSET 0 12.4537 0
            CHANNELS 3 Zrotation Xrotation Yrotation
            JOINT RightArmRoll
            {
              OFFSET 0 6.28686 0
              CHANNELS 3 Zrotation Xrotation Yrotation
              JOINT RightForeArm
              {
                OFFSET 0 18.3114 0
                CHANNELS 3 Zrotation Xrotation Yrotation
                JOINT RightForeArmRoll
                {
                  OFFSET 0 7.05482 0
                  CHANNELS 3 Zrotation Xrotation Yrotation
                  JOINT RightHand
                  {
                    OFFSET 0 14.1575 0
                    CHANNELS 3 Zrotation Xrotation Yrotation
                    End Site
                    {
                      OFFSET 0 0 0
                    }
                  }
                }
              }
            }
          }
        }
        JOINT LeftShoulder
        {
          OFFSET 3.70221 9.49509 -0.515508
          CHANNELS 3 Zrotation Xrotation Yrotation
          JOINT LeftArm
          {
            OFFSET 0 12.4537 0
            CHANNELS 3 Zrotation Xrotation Yrotation
            JOINT LeftArmRoll
            {
              OFFSET 0 6.28685 0
              CHANNELS 3 Zrotation Xrotation Yrotation
              JOINT LeftForeArm
              {
                OFFSET 0 18.3114 0
                CHANNELS 3 Zrotation Xrotation Yrotation
                JOINT LeftForeArmRoll
                {
                  OFFSET 0 7.05482 0
                  CHANNELS 3 Zrotation Xrotation Yrotation
                  JOINT LeftHand
                  {
                    OFFSET 0 14.1575 0
                    CHANNELS 3 Zrotation Xrotation Yrotation
                    End Site
                    {
                      OFFSET 0 0 0
                    }
                  }
                }
              }
            }
          }
        }
      }
    }
  }
  JOINT RightUpLeg
  {
    OFFSET -5.66616 -1.03903 -0.87161
    CHANNELS 3 Zrotation Xrotation Yrotation
    JOINT RightUpLegRoll
    {
      OFFSET 0 16.6005 0
      CHANNELS 3 Zrotation Xrotation Yrotation
      JOINT RightLeg
      {
        OFFSET 0 -20.5572 0
        CHANNELS 3 Zrotation Xrotation Yrotation
        JOINT RightLegRoll
        {
          OFFSET 0 20.6244 0
          CHANNELS 3 Zrotation Xrotation Yrotation
          JOINT RightFoot
          {
            OFFSET 0 17.1664 0
            CHANNELS 3 Zrotation Xrotation Yrotation
            JOINT RightToeBase
            {
              OFFSET 0 14.3502 0
              CHANNELS 3 Zrotation Xrotation Yrotation
              End Site
              {
                OFFSET 0.00608252 6.9497 -0.801061
              }
            }
          }
        }
      }
    }
  }
  JOINT LeftUpLeg
  {
    OFFSET 5.66616 -1.03903 -0.87161
    CHANNELS 3 Zrotation Xrotation Yrotation
    JOINT LeftUpLegRoll
    {
      OFFSET 0 16.6006 0
      CHANNELS 3 Zrotation Xrotation Yrotation
      JOINT LeftLeg
      {
        OFFSET 0 20.5571 0
        CHANNELS 3 Zrotation Xrotation Yrotation
        JOINT LeftLegRoll
        {
          OFFSET 0 20.8151 0
          CHANNELS 3 Zrotation Xrotation Yrotation
          JOINT LeftFoot
          {
            OFFSET 0 16.9757 0
            CHANNELS 3 Zrotation Xrotation Yrotation
            JOINT LeftToeBase
            {
              OFFSET 0 14.3502 0
              CHANNELS 3 Zrotation Xrotation Yrotation
              End Site
              {
                OFFSET -0.0272592 6.94971 -0.801061
              }
            }
          }
        }
      }
    }
  }
}
MOTION
Frames: 12
Frame Time: 0.00208333
52.5199 85.7435 7.45244 -2.15745 -3.99172 -0.146459 -0.226424 -1.24026 -0.0681193 -0.453629 1.52299 -0.132912 -0.452393 3.16804 -0.125389 3.49368 7.78578 -0.190363 -2.09003 0.734094 0.611342 62.4139 -3.13224 -2.22376 108.419 16.5093 5.33977 -6.07836e-006 -3.28499e-006 -7.0943e-006 13.0829 4.91343 -1.04056 1.87105e-005 -8.42243e-007 -3 8.02885 -4.95145 0.697693 -54.4535 -1.66464 0.534772 -112.48 13.9486 0.0252555 -1.89201e-006 -1.88498e-006 3.34695e-006 -10.8372 3.96316 0.894356 -1.07784e-005 -2.91131e-006 3.00301 -8.02889 -4.95146 -0.697687 177.024 -3.595 -0.399057 180 7.01513e-015 178.784 178.384 5.02091 179.671 2.79087e-006 2.9299e-007 0.0413382 -18.7298 67.8575 19.4048 8.13649 25.2326 -3.48773 -171.306 -2.62789 -2.17597 4.54188e-006 -4.6773e-006 -1.12341 -1.66109 -7.65673 0.43044 -6.59728e-007 -4.95465e-006 -0.0675102 18.7144 69.3001 -20.6383 -8.13658 25.2339 3.48614 
52.5087 85.7426 7.44822 -2.15087 -4.00702 -0.148533 -0.228003 -1.23784 -0.0683933 -0.456653 1.52832 -0.131309 -0.455438 3.17337 -0.123733 3.48598 7.79288 -0.182385 -2.08268 0.735543 0.618061 62.4208 -3.1316 -2.22394 108.405 16.5054 5.33704 -6.07836e-006 -3.28499e-006 -7.0943e-006 13.0863 4.93465 -1.0432 1.87105e-005 -8.42243e-007 -3 8.02885 -4.95145 0.697693 -54.4564 -1.66612 0.536074 -112.479 13.9508 0.0254385 -1.89201e-006 -1.88498e-006 3.34695e-006 -10.8358 3.97277 0.894854 -1.07784e-005 -2.91131e-006 3.00301 -8.02889 -4.95146 -0.697687 177.016 -3.60988 -0.402042 180 7.01513e-015 178.784 178.399 5.01583 179.67 2.79087e-006 2.9299e-007 0.0413382 -18.7316 67.8598 19.4056 8.13649 25.2326 -3.48773 -171.322 -2.66982 -2.16417 4.54188e-006 -4.6773e-006 -1.12529 -1.65439 -7.60802 0.429402 -6.59728e-007 -4.95465e-006 -0.0674483 18.7164 69.2803 -20.621 -8.13658 25.2339 3.48614 
52.5499 85.7483 7.48854 -2.14399 -4.02276 -0.150717 -0.229623 -1.23536 -0.0686792 -0.45975 1.53381 -0.129641 -0.458556 3.17886 -0.122011 3.47748 7.80061 -0.173936 -2.0746 0.736179 0.625096 62.4274 -3.13082 -2.22401 108.391 16.5015 5.33382 -6.07836e-006 -3.28499e-006 -7.0943e-006 13.0901 4.95505 -1.04571 1.87105e-005 -8.42243e-007 -3 8.02885 -4.95145 0.697693 -54.4589 -1.66752 0.537283 -112.479 13.9532 0.0262229 -1.89201e-006 -1.88498e-006 3.34695e-006 -10.8347 3.98167 0.895243 -1.07784e-005 -2.91131e-006 3.00301 -8.02889 -4.95146 -0.697687 177.008 -3.62521 -0.405484 180 7.01513e-015 178.783 178.416 5.01037 179.668 2.79087e-006 2.9299e-007 0.0413382 -18.7337 67.8622 19.4065 8.13649 25.2326 -3.48773 -171.339 -2.71376 -2.15163 4.54188e-006 -4.6773e-006 -1.12728 -1.64723 -7.55652 0.428311 -6.59728e-007 -4.95465e-006 -0.067398 18.7187 69.2594 -20.6028 -8.13658 25.2339 3.48614 
52.5393 85.7477 7.47652 -2.1369 -4.03881 -0.152977 -0.231272 -1.23284 -0.0689734 -0.462897 1.53942 -0.127927 -0.461726 3.18447 -0.120241 3.46843 7.80879 -0.165156 -2.06602 0.736245 0.632352 62.4339 -3.12995 -2.22401 108.377 16.4976 5.33024 -6.07836e-006 -3.28499e-006 -7.0943e-006 13.0941 4.97487 -1.04814 1.87105e-005 -8.42243e-007 -3 8.02885 -4.95145 0.697693 -54.4612 -1.66885 0.538427 -112.479 13.9557 0.0274285 -1.89201e-006 -1.88498e-006 3.34695e-006 -10.8338 3.99005 0.895556 -1.07784e-005 -2.91131e-006 3.00301 -8.02889 -4.95146 -0.697687 176.999 -3.64084 -0.409245 180 7.01512e-015 178.782 178.434 5.00466 179.666 2.79087e-006 2.9299e-007 0.0413382 -18.7358 67.8648 19.4074 8.13649 25.2326 -3.48773 -171.356 -2.75911 -2.13856 4.54188e-006 -4.6773e-006 -1.12935 -1.63975 -7.50305 0.427184 -6.59728e-007 -4.95465e-006 -0.0673558 18.7211 69.2378 -20.5839 -8.13658 25.2339 3.48614 
52.5483 85.7503 7.48589 -2.12969 -4.05504 -0.155281 -0.232938 -1.23029 -0.0692723 -0.466074 1.54509 -0.126188 -0.464925 3.19014 -0.118446 3.45905 7.81722 -0.156187 -2.05715 0.735986 0.639735 62.4402 -3.12902 -2.22397 108.364 16.4936 5.32647 -6.07836e-006 -3.28499e-006 -7.0943e-006 13.0983 4.99436 -1.05051 1.87105e-005 -8.42243e-007 -3 8.02885 -4.95145 0.697693 -54.4635 -1.67015 0.539533 -112.479 13.9583 0.0288747 -1.89201e-006 -1.88498e-006 3.34695e-006 -10.8329 3.99814 0.895824 -1.07784e-005 -2.91131e-006 3.00301 -8.02889 -4.95146 -0.697687 176.991 -3.65666 -0.413188 180 7.01512e-015 178.782 178.451 4.99882 179.665 2.79087e-006 2.9299e-007 0.0413382 -18.7379 67.8674 19.4084 8.13649 25.2326 -3.48773 -171.374 -2.80526 -2.1252 4.54188e-006 -4.6773e-006 -1.13146 -1.63208 -7.44847 0.426037 -6.59728e-007 -4.95465e-006 -0.0673184 18.7236 69.2157 -20.5647 -8.13658 25.2339 3.48614 
52.5544 85.745 7.48741 -2.12245 -4.07132 -0.157597 -0.234607 -1.22773 -0.0695723 -0.469258 1.55078 -0.124442 -0.468132 3.19582 -0.116643 3.4496 7.82571 -0.147171 -2.0482 0.735646 0.647148 62.4465 -3.12808 -2.22391 108.351 16.4897 5.32265 -6.07836e-006 -3.28499e-006 -7.0943e-006 13.1025 5.01376 -1.05287 1.87105e-005 -8.42243e-007 -3 8.02885 -4.95145 0.697693 -54.4657 -1.67144 0.540631 -112.48 13.9608 0.0303811 -1.89201e-006 -1.88498e-006 3.34695e-006 -10.8321 4.00616 0.896082 -1.07784e-005 -2.91131e-006 3.00301 -8.02889 -4.95146 -0.697687 176.982 -3.67252 -0.417178 180 7.01512e-015 178.781 178.47 4.99294 179.663 2.79087e-006 2.9299e-007 0.0413382 -18.7401 67.8701 19.4093 8.13649 25.2326 -3.48773 -171.392 -2.85162 -2.11176 4.54188e-006 -4.6773e-006 -1.13359 -1.62437 -7.39361 0.424885 -6.59728e-007 -4.95465e-006 -0.0672821 18.7262 69.1935 -20.5455 -8.13658 25.2339 3.48614 
52.5404 85.7553 7.46903 -2.11528 -4.0875 -0.15989 -0.236269 -1.22519 -0.06987 -0.472428 1.55643 -0.122709 -0.471325 3.20147 -0.114854 3.4403 7.83408 -0.138248 -2.0394 0.735468 0.654499 62.4529 -3.12716 -2.22388 108.337 16.4857 5.31893 -6.07836e-006 -3.28499e-006 -7.0943e-006 13.1066 5.03334 -1.05525 1.87105e-005 -8.42243e-007 -3 8.02885 -4.95145 0.697693 -54.4679 -1.67274 0.541747 -112.48 13.9634 0.0317672 -1.89201e-006 -1.88498e-006 3.34695e-006 -10.8312 4.01432 0.896361 -1.07784e-005 -2.91131e-006 3.00301 -8.02889 -4.95146 -0.697687 176.973 -3.68829 -0.421076 180 7.01512e-015 178.78 178.487 4.98713 179.661 2.79087e-006 2.9299e-007 0.0413382 -18.7423 67.8727 19.4103 8.13649 25.2326 -3.48773 -171.409 -2.89757 -2.09847 4.54188e-006 -4.6773e-006 -1.13569 -1.61675 -7.3393 0.423744 -6.59728e-007 -4.95465e-006 -0.0672434 18.7288 69.1716 -20.5264 -8.13658 25.2339 3.48614 
52.5488 85.7586 7.47676 -2.10825 -4.10346 -0.162129 -0.23791 -1.22268 -0.0701618 -0.475562 1.56201 -0.121009 -0.474482 3.20705 -0.113098 3.43139 7.84213 -0.129561 -2.03097 0.735697 0.661692 62.4593 -3.12632 -2.2239 108.324 16.4818 5.31546 -6.07836e-006 -3.28499e-006 -7.0943e-006 13.1105 5.05332 -1.0577 1.87105e-005 -8.42243e-007 -3 8.02885 -4.95145 0.697693 -54.4704 -1.67409 0.54291 -112.48 13.9659 0.0328525 -1.89201e-006 -1.88498e-006 3.34695e-006 -10.8302 4.02285 0.896696 -1.07784e-005 -2.91131e-006 3.00301 -8.02889 -4.95146 -0.697687 176.965 -3.70383 -0.424746 180 7.01512e-015 178.779 178.505 4.98146 179.66 2.79087e-006 2.9299e-007 0.0413382 -18.7444 67.8753 19.4112 8.13649 25.2326 -3.48773 -171.426 -2.94252 -2.08556 4.54188e-006 -4.6773e-006 -1.13774 -1.60935 -7.2864 0.42263 -6.59728e-007 -4.95465e-006 -0.067199 18.7313 69.1501 -20.5079 -8.13658 25.2339 3.48614 
52.5454 85.7496 7.48237 -2.10147 -4.11907 -0.164281 -0.239517 -1.22022 -0.0704442 -0.478639 1.56745 -0.11936 -0.47758 3.21249 -0.111396 3.42311 7.84967 -0.121251 -2.02311 0.736577 0.668632 62.466 -3.12558 -2.224 108.31 16.4779 5.31238 -6.07836e-006 -3.28499e-006 -7.0943e-006 13.1142 5.07397 -1.06026 1.87105e-005 -8.42243e-007 -3 8.02885 -4.95145 0.697693 -54.473 -1.67551 0.544146 -112.48 13.9682 0.0334567 -1.89201e-006 -1.88498e-006 3.34695e-006 -10.8291 4.03196 0.897118 -1.07784e-005 -2.91131e-006 3.00301 -8.02889 -4.95146 -0.697687 176.956 -3.71903 -0.428052 180 7.01512e-015 178.779 178.521 4.97614 179.658 2.79087e-006 2.9299e-007 0.0413382 -18.7464 67.8777 19.412 8.13649 25.2326 -3.48773 -171.443 -2.98586 -2.07324 4.54188e-006 -4.6773e-006 -1.1397 -1.60231 -7.23573 0.421559 -6.59728e-007 -4.95465e-006 -0.0671452 18.7338 69.1296 -20.4902 -8.13658 25.2339 3.48614 
52.5472 85.7559 7.48159 -2.09502 -4.1342 -0.166312 -0.241079 -1.21783 -0.0707135 -0.481636 1.57272 -0.117783 -0.480599 3.21776 -0.109766 3.41571 7.85652 -0.11346 -2.01605 0.738351 0.675225 62.473 -3.12499 -2.22422 108.296 16.474 5.30985 -6.07836e-006 -3.28499e-006 -7.0943e-006 13.1175 5.09552 -1.06295 1.87105e-005 -8.42243e-007 -3 8.02885 -4.95145 0.697693 -54.4759 -1.67704 0.545485 -112.478 13.9704 0.033399 -1.89201e-006 -1.88498e-006 3.34695e-006 -10.8276 4.04187 0.897661 -1.07784e-005 -2.91131e-006 3.00301 -8.02889 -4.95146 -0.697687 176.948 -3.73373 -0.430856 180 7.01511e-015 178.778 178.536 4.97118 179.657 2.79087e-006 2.9299e-007 0.0413382 -18.7482 67.8799 19.4129 8.13649 25.2326 -3.48773 -171.458 -3.027 -2.06174 4.54188e-006 -4.6773e-006 -1.14153 -1.59578 -7.18815 0.420547 -6.59728e-007 -4.95465e-006 -0.0670786 18.736 69.1102 -20.4735 -8.13658 25.2339 3.48614 
52.5476 85.7528 7.48335 -2.08899 -4.14871 -0.168189 -0.242582 -1.21552 -0.0709662 -0.484533 1.57777 -0.116296 -0.483515 3.2228 -0.10823 3.40941 7.86247 -0.106329 -2.01001 0.741264 0.681375 62.4804 -3.1246 -2.22459 108.281 16.4703 5.30802 -6.07836e-006 -3.28499e-006 -7.0943e-006 13.1203 5.11823 -1.06583 1.87105e-005 -8.42243e-007 -3 8.02885 -4.95145 0.697693 -54.4792 -1.67868 0.546953 -112.476 13.9724 0.0324992 -1.89201e-006 -1.88498e-006 3.34695e-006 -10.8258 4.05279 0.898357 -1.07784e-005 -2.91131e-006 3.00301 -8.02889 -4.95146 -0.697687 176.941 -3.74781 -0.433021 180 7.01511e-015 178.777 178.549 4.96674 179.655 2.79087e-006 2.9299e-007 0.0413382 -18.7498 67.8819 19.4136 8.13649 25.2326 -3.48773 -171.473 -3.06533 -2.05129 4.54188e-006 -4.6773e-006 -1.14322 -1.58988 -7.14448 0.419608 -6.59728e-007 -4.95465e-006 -0.0669956 18.738 69.0924 -20.4582 -8.13658 25.2339 3.48614 
52.5472 85.7509 7.48431 -2.08347 -4.16246 -0.169881 -0.244015 -1.21333 -0.0711988 -0.487306 1.58254 -0.114919 -0.486307 3.22757 -0.106807 3.40446 7.86735 -0.0999995 -2.0052 0.745559 0.686989 62.4882 -3.12445 -2.22513 108.265 16.4666 5.30704 -6.07836e-006 -3.28499e-006 -7.0943e-006 13.1225 5.14234 -1.06893 1.87105e-005 -8.42243e-007 -3 8.02885 -4.95145 0.697693 -54.483 -1.68048 0.54858 -112.472 13.9741 0.0305767 -1.89201e-006 -1.88498e-006 3.34695e-006 -10.8236 4.06495 0.899239 -1.07784e-005 -2.91131e-006 3.00301 -8.02889 -4.95146 -0.697687 176.934 -3.76114 -0.43441 180 7.01511e-015 178.777 178.56 4.96291 179.654 2.79087e-006 2.9299e-007 0.0413382 -18.7513 67.8836 19.4143 8.13649 25.2326 -3.48773 -171.485 -3.10024 -2.04211 4.54188e-006 -4.6773e-006 -1.14471 -1.58475 -7.10557 0.41876 -6.59728e-007 -4.95465e-006 -0.0668928 18.7396 69.0764 -20.4445 -8.13658 25.2339 3.48614 
